#!OML:ASF H:\ManfredObstacles\Project 1\Capture day 2\Session 1\male.ASF
:FULLY-SPECIFIED
:DEGREES
239
root 2.88584 14.459 5.04461 -157.177 -18.2378 182.029
lowerback 35.4777 4.06559 0.968725
upperback 17.2321 0.474203 0.764737
thorax 1.08221 -1.54 0.118174
lowerneck -29.601 -2.5406 0.563524
upperneck 23.7633 -6.00487 6.24191
head 13.09 -1.71398 1.16957
rclavicle 5.30507e-015 1.14922e-014
rhumerus -11.0996 8.26114 -96.4043
rradius 68.3014
rwrist 36.9343
rhand -10.526 -10.6938
rfingers 7.12502
rthumb 15.4771 -40.0942
lclavicle 5.30507e-015 1.14922e-014
lhumerus -12.3256 -42.9418 88.2507
lradius 81.0717
lwrist -30.7613
lhand -17.9328 15.9955
lfingers 7.12502
lthumb 8.33519 45.811
rfemur -51.0552 -6.53304 39.3476
rtibia 63.4513
rfoot -20.9147 -18.1957
rtoes -25.135
lfemur -71.3143 -13.8257 -10.5275
ltibia 45.5639
lfoot 7.68946 11.1143
ltoes -11.0566
240
root 2.87384 14.4455 4.92118 -157.421 -18.0833 181.993
lowerback 35.8955 4.11861 0.856957
upperback 17.2238 0.455757 0.821977
thorax 0.930129 -1.5803 0.245321
lowerneck -29.6544 -2.52927 0.578815
upperneck 23.7123 -5.98338 6.22313
head 13.0771 -1.70567 1.16345
rclavicle -7.70291e-016 1.29272e-014
rhumerus -11.1299 8.23547 -96.3968
rradius 68.6146
rwrist 36.8741
rhand -10.5602 -10.7103
rfingers 7.12502
rthumb 15.4441 -40.1133
lclavicle -7.70291e-016 1.29272e-014
lhumerus -12.1617 -43.2224 88.1133
lradius 81.6275
lwrist -29.7746
lhand -17.8188 16.2469
lfingers 7.12502
lthumb 8.44518 46.0581
rfemur -51.0129 -6.63938 39.1787
rtibia 64.8272
rfoot -20.2438 -17.5744
rtoes -26.1747
lfemur -71.2307 -14.0522 -10.4029
ltibia 46.7229
lfoot 7.74449 11.1993
ltoes -10.9203
241
root 2.86209 14.4344 4.79728 -157.685 -17.9102 181.919
lowerback 36.3573 4.17731 0.691676
upperback 17.2195 0.417776 0.89516
thorax 0.768071 -1.63794 0.423309
lowerneck -29.7363 -2.51741 0.537909
upperneck 23.701 -5.93507 6.19018
head 13.0854 -1.69088 1.16655
rclavicle 1.35174e-014 -3.07806e-014
rhumerus -11.2087 8.28032 -96.3565
rradius 69.0448
rwrist 36.8539
rhand -10.6184 -10.7342
rfingers 7.12502
rthumb 15.3881 -40.1415
lclavicle 1.35174e-014 -3.07806e-014
lhumerus -11.9995 -43.4668 88.0138
lradius 82.1895
lwrist -28.9077
lhand -17.7242 16.5483
lfingers 7.12502
lthumb 8.53646 46.3558
rfemur -51.0113 -6.7347 38.9298
rtibia 66.3039
rfoot -19.3995 -16.8696
rtoes -27.3481
lfemur -71.0468 -14.1964 -10.4354
ltibia 47.7706
lfoot 7.85141 11.0143
ltoes -10.6148
242
root 2.84966 14.4239 4.67422 -157.921 -17.7141 181.809
lowerback 36.7859 4.24327 0.549528
upperback 17.2234 0.394639 0.941144
thorax 0.62914 -1.68413 0.555941
lowerneck -29.897 -2.526 0.536322
upperneck 23.7787 -5.93845 6.1361
head 13.145 -1.69346 1.1451
rclavicle 4.00551e-014 -9.95166e-015
rhumerus -11.3291 8.24147 -96.3257
rradius 69.6121
rwrist 36.8821
rhand -10.7007 -10.7701
rfingers 7.12502
rthumb 15.3088 -40.1835
lclavicle 4.00551e-014 -9.95166e-015
lhumerus -11.8003 -43.7846 87.8858
lradius 82.6955
lwrist -28.1749
lhand -17.6903 16.8254
lfingers 7.12502
lthumb 8.5692 46.6315
rfemur -51.1193 -6.78877 38.6003
rtibia 67.8824
rfoot -18.3958 -16.0482
rtoes -28.5458
lfemur -70.8196 -14.2639 -10.5911
ltibia 48.729
lfoot 7.98504 10.6378
ltoes -10.0921
243
root 2.83699 14.4122 4.5531 -158.064 -17.4809 181.664
lowerback 37.0997 4.31312 0.42358
upperback 17.2244 0.394488 0.946125
thorax 0.526144 -1.7095 0.629353
lowerneck -30.0557 -2.55127 0.568036
upperneck 23.8908 -5.98391 6.07757
head 13.2189 -1.71106 1.10822
rclavicle 3.57812e-015 -7.10034e-015
rhumerus -11.5035 8.09114 -96.3194
rradius 70.3155
rwrist 36.993
rhand -10.7759 -10.7961
rfingers 7.12502
rthumb 15.2363 -40.215
lclavicle 3.57812e-015 -7.10034e-015
lhumerus -11.5935 -44.1526 87.7386
lradius 83.0914
lwrist -27.6332
lhand -17.7137 17.0445
lfingers 7.12502
lthumb 8.5466 46.8515
rfemur -51.4228 -6.76451 38.1963
rtibia 69.5668
rfoot -17.2544 -15.0974
rtoes -29.7551
lfemur -70.6339 -14.2439 -10.8414
ltibia 49.6387
lfoot 8.07078 10.2417
ltoes -9.10764
244
root 2.82367 14.4001 4.43409 -158.114 -17.1958 181.5
lowerback 37.277 4.39776 0.32231
upperback 17.2288 0.434522 0.910473
thorax 0.471734 -1.70506 0.633601
lowerneck -30.1919 -2.59066 0.653977
upperneck 24.0201 -6.06992 5.9983
head 13.2947 -1.74414 1.04621
rclavicle -2.20154e-014 -2.71341e-014
rhumerus -11.7301 7.81506 -96.3437
rradius 71.1498
rwrist 37.1196
rhand -10.8443 -10.8235
rfingers 7.12502
rthumb 15.1705 -40.2474
lclavicle -2.20154e-014 -2.71341e-014
lhumerus -11.374 -44.5559 87.5763
lradius 83.3275
lwrist -27.3153
lhand -17.8158 17.1334
lfingers 7.12502
lthumb 8.4481 46.9444
rfemur -51.9188 -6.63942 37.7221
rtibia 71.3411
rfoot -15.993 -14.0199
rtoes -30.8838
lfemur -70.5057 -14.1471 -11.1484
ltibia 50.5368
lfoot 8.0293 10.0022
ltoes -8.10189
245
root 2.80918 14.3869 4.31762 -158.071 -16.8841 181.32
lowerback 37.3237 4.47294 0.270284
upperback 17.235 0.493874 0.834199
thorax 0.46253 -1.67926 0.562526
lowerneck -30.2913 -2.6445 0.754017
upperneck 24.1468 -6.18611 5.92849
head 13.3636 -1.78851 0.979418
rclavicle -3.40015e-014 1.49671e-014
rhumerus -11.9999 7.44573 -96.394
rradius 72.0851
rwrist 37.2452
rhand -10.9324 -10.8393
rfingers 7.12502
rthumb 15.0856 -40.2696
lclavicle -3.40015e-014 1.49671e-014
lhumerus -11.1574 -44.9572 87.4061
lradius 83.4009
lwrist -27.2195
lhand -17.9591 17.0972
lfingers 7.12502
lthumb 8.30982 46.9137
rfemur -52.6044 -6.45129 37.1931
rtibia 73.1838
rfoot -14.6598 -12.8485
rtoes -31.8158
lfemur -70.4535 -14.0148 -11.4812
ltibia 51.4396
lfoot 7.88682 10.0227
ltoes -7.13928
246
root 2.79328 14.3735 4.20378 -157.945 -16.5639 181.139
lowerback 37.2461 4.52462 0.26507
upperback 17.2427 0.554057 0.737607
thorax 0.495911 -1.64319 0.444692
lowerneck -30.3255 -2.70595 0.830009
upperneck 24.2203 -6.29722 5.86773
head 13.3989 -1.83452 0.921014
rclavicle -2.95692e-014 1.42876e-015
rhumerus -12.3081 7.05801 -96.4452
rradius 73.0956
rwrist 37.3246
rhand -11.0553 -10.8548
rfingers 7.12502
rthumb 14.9673 -40.2939
lclavicle -2.95692e-014 1.42876e-015
lhumerus -10.9458 -45.3147 87.2488
lradius 83.3128
lwrist -27.318
lhand -18.1159 16.9598
lfingers 7.12502
lthumb 8.15844 46.7823
rfemur -53.4615 -6.2175 36.6233
rtibia 75.0603
rfoot -13.2741 -11.6133
rtoes -32.4266
lfemur -70.4813 -13.8714 -11.8138
ltibia 52.3382
lfoot 7.64827 10.3041
ltoes -6.28394
247
root 2.7763 14.3621 4.09214 -157.783 -16.2604 180.965
lowerback 37.109 4.54233 0.300038
upperback 17.2548 0.590566 0.64466
thorax 0.554819 -1.61436 0.316721
lowerneck -30.326 -2.75595 0.870001
upperneck 24.2664 -6.36594 5.79298
head 13.4151 -1.86905 0.87154
rclavicle 5.30258e-014 1.42876e-015
rhumerus -12.6466 6.74082 -96.4811
rradius 74.1719
rwrist 37.297
rhand -11.1851 -10.8972
rfingers 7.12502
rthumb 14.8421 -40.3456
lclavicle 5.30258e-014 1.42876e-015
lhumerus -10.755 -45.5539 87.1201
lradius 83.1231
lwrist -27.6799
lhand -18.2206 16.769
lfingers 7.12502
lthumb 8.05746 46.5954
rfemur -54.4163 -5.96804 36.0234
rtibia 76.9223
rfoot -11.858 -10.4011
rtoes -32.5902
lfemur -70.5314 -13.7466 -12.1341
ltibia 53.2034
lfoot 7.27855 10.7571
ltoes -5.51002
248
root 2.75821 14.354 3.98218 -157.635 -16.0137 180.802
lowerback 36.9896 4.5059 0.393933
upperback 17.2718 0.575158 0.568296
thorax 0.615534 -1.60939 0.191498
lowerneck -30.3033 -2.79213 0.846791
upperneck 24.274 -6.38405 5.73117
head 13.4117 -1.88749 0.847687
rclavicle -4.77083e-015 -3.18552e-014
rhumerus -13.0041 6.53092 -96.494
rradius 75.3003
rwrist 37.2077
rhand -11.2894 -10.9666
rfingers 7.12502
rthumb 14.7417 -40.4224
lclavicle -4.77083e-015 -3.18552e-014
lhumerus -10.5828 -45.6579 87.0122
lradius 82.8731
lwrist -28.259
lhand -18.282 16.5949
lfingers 7.12502
lthumb 7.99815 46.4236
rfemur -55.3848 -5.75321 35.4046
rtibia 78.7211
rfoot -10.4724 -9.24765
rtoes -32.1093
lfemur -70.5421 -13.678 -12.4345
ltibia 54.0024
lfoot 6.82472 11.3109
ltoes -4.90562
249
root 2.7402 14.3509 3.87263 -157.531 -15.8187 180.646
lowerback 36.9366 4.43386 0.531061
upperback 17.2912 0.521019 0.509174
thorax 0.659031 -1.62451 0.0740009
lowerneck -30.279 -2.81148 0.797231
upperneck 24.2634 -6.36441 5.67194
head 13.4001 -1.89234 0.836708
rclavicle -4.78077e-014 1.82136e-014
rhumerus -13.3802 6.4252 -96.4901
rradius 76.4618
rwrist 37.0487
rhand -11.4039 -11.0541
rfingers 7.12502
rthumb 14.6314 -40.518
lclavicle -4.78077e-014 1.82136e-014
lhumerus -10.4467 -45.6513 86.9219
lradius 82.6384
lwrist -29.0003
lhand -18.2395 16.5233
lfingers 7.12502
lthumb 8.03918 46.3504
rfemur -56.3029 -5.55907 34.7609
rtibia 80.4088
rfoot -9.09425 -8.18941
rtoes -30.9388
lfemur -70.4591 -13.6546 -12.7266
ltibia 54.7084
lfoot 6.34901 11.8876
ltoes -4.38871
250
root 2.72299 14.3529 3.76344 -157.494 -15.6915 180.496
lowerback 36.9915 4.31651 0.665338
upperback 17.2968 0.402083 0.494662
thorax 0.652145 -1.67796 0.0257194
lowerneck -30.2493 -2.78947 0.72033
upperneck 24.2706 -6.26454 5.57962
head 13.3913 -1.86974 0.833367
rclavicle 4.90004e-014 -4.39563e-014
rhumerus -13.7975 6.51895 -96.4448
rradius 77.6448
rwrist 36.8218
rhand -11.515 -11.1495
rfingers 7.12502
rthumb 14.5243 -40.621
lclavicle 4.90004e-014 -4.39563e-014
lhumerus -10.3971 -45.4609 86.9158
lradius 82.4359
lwrist -29.7669
lhand -18.1116 16.5963
lfingers 7.12502
lthumb 8.16261 46.4186
rfemur -57.1344 -5.38843 34.093
rtibia 81.9469
rfoot -7.78261 -7.19993
rtoes -29.053
lfemur -70.254 -13.6891 -13.0023
ltibia 55.3106
lfoot 5.91425 12.4264
ltoes -3.9561
251
root 2.70825 14.359 3.65372 -157.504 -15.5889 180.34
lowerback 37.1452 4.20709 0.806045
upperback 17.3016 0.285747 0.483323
thorax 0.612942 -1.73326 -0.0223349
lowerneck -30.2501 -2.75653 0.705021
upperneck 24.271 -6.17693 5.48381
head 13.3841 -1.84665 0.815852
rclavicle 5.06901e-015 -9.69075e-016
rhumerus -14.2098 6.62963 -96.4149
rradius 78.8432
rwrist 36.5984
rhand -11.6246 -11.2329
rfingers 7.12502
rthumb 14.4187 -40.7121
lclavicle 5.06901e-015 -9.69075e-016
lhumerus -10.3467 -45.2833 86.876
lradius 82.2878
lwrist -30.3606
lhand -17.9102 16.8129
lfingers 7.12502
lthumb 8.35696 46.6276
rfemur -57.895 -5.19585 33.3874
rtibia 83.3099
rfoot -6.67323 -6.33316
rtoes -26.8343
lfemur -69.94 -13.7381 -13.2806
ltibia 55.8145
lfoot 5.52868 12.9167
ltoes -3.641
